<?xml version="1.0" standalone="no"?>
<!DOCTYPE svg PUBLIC "-//W3C//DTD SVG 20010904//EN"
 "http://www.w3.org/TR/2001/REC-SVG-20010904/DTD/svg10.dtd">
<svg version="1.0" xmlns="http://www.w3.org/2000/svg"
 width="500.000000pt" height="500.000000pt" viewBox="0 0 500.000000 500.000000"
 preserveAspectRatio="xMidYMid meet">

<g transform="translate(0.000000,500.000000) scale(0.100000,-0.100000)"
fill="#000000" stroke="none">
<path d="M2235 3690 c-99 -14 -215 -49 -311 -95 -275 -129 -451 -337 -500
-591 -13 -68 -12 -79 2 -110 10 -21 28 -38 49 -45 31 -12 33 -15 38 -72 4 -50
2 -65 -14 -85 -23 -30 -25 -74 -3 -107 14 -21 14 -26 0 -54 -20 -37 -20 -88
-1 -121 16 -28 21 -150 6 -150 -22 0 -71 -54 -81 -89 -13 -48 3 -149 34 -216
46 -99 147 -189 253 -226 53 -18 89 -19 704 -19 638 0 649 0 706 21 173 65
283 218 283 394 0 69 -19 103 -71 130 -26 14 -29 20 -29 65 0 31 8 64 20 87
24 46 25 74 3 120 -15 33 -15 37 0 63 23 39 21 74 -5 105 -19 22 -22 35 -20
81 4 49 7 56 30 65 51 19 72 48 72 98 -1 193 -149 434 -350 571 -96 65 -235
127 -350 155 -83 21 -136 27 -255 30 -82 2 -177 0 -210 -5z m310 -61 c374 -46
689 -284 776 -586 23 -83 25 -129 3 -137 -20 -8 -1808 -8 -1828 0 -47 18 18
230 109 354 53 73 173 181 250 226 210 125 444 173 690 143z m695 -834 c0 -34
-5 -47 -19 -55 -30 -15 -1613 -14 -1629 2 -7 7 -12 31 -12 55 l0 43 830 0 830
0 0 -45z m30 -144 c15 -29 -12 -51 -64 -51 -39 0 -51 -7 -142 -86 -127 -110
-138 -118 -169 -110 -13 3 -62 40 -108 81 -138 123 -88 115 -690 115 -514 0
-557 3 -557 33 0 37 4 37 872 37 827 0 848 0 858 -19z m-637 -128 c55 -28 129
-95 117 -107 -21 -21 -122 -12 -186 16 -106 48 -226 47 -320 -4 -58 -31 -134
-30 -210 5 -107 47 -226 46 -326 -4 -20 -10 -54 -21 -76 -25 -35 -5 -44 -3
-66 19 -33 33 -33 61 -1 92 l24 25 506 0 c451 0 509 -2 538 -17z m618 -1 c31
-26 31 -78 -2 -104 -27 -23 -78 -19 -137 9 l-34 16 53 48 c59 52 85 59 120 31z
m-1236 -150 c79 -36 190 -38 249 -4 90 50 195 50 289 0 54 -29 185 -32 233 -6
28 15 32 15 47 1 8 -9 37 -18 64 -20 40 -4 54 0 86 21 21 14 42 26 48 26 5 0
36 -11 69 -25 33 -14 78 -25 100 -25 39 0 40 -1 40 -35 l0 -35 -830 0 -830 0
0 35 c0 34 1 35 40 35 22 0 68 11 100 25 123 52 191 53 295 7z m1304 -186 c36
-33 22 -155 -27 -236 -31 -51 -99 -113 -157 -143 l-60 -32 -665 0 -665 0 -57
28 c-68 34 -151 119 -180 184 -11 26 -23 75 -26 110 -5 67 4 88 43 104 11 4
414 7 896 6 847 -2 878 -3 898 -21z"/>
<path d="M2393 3563 c-18 -7 -16 -68 2 -83 33 -27 64 47 33 78 -13 13 -16 13
-35 5z"/>
<path d="M2201 3506 c-44 -47 -2 -89 45 -45 32 30 32 69 1 69 -13 0 -34 -11
-46 -24z"/>
<path d="M2550 3507 c0 -26 38 -67 62 -67 28 0 32 39 7 66 -30 32 -69 33 -69
1z"/>
<path d="M2005 3475 c-30 -29 -30 -59 0 -63 26 -4 68 40 63 64 -5 29 -35 28
-63 -1z"/>
<path d="M2755 3489 c-20 -31 33 -90 69 -76 23 9 20 30 -9 61 -25 27 -49 33
-60 15z"/>
<path d="M1778 3347 c-31 -25 -37 -64 -12 -74 19 -7 74 43 74 68 0 9 -7 20
-16 23 -19 7 -14 9 -46 -17z"/>
<path d="M2287 3363 c-4 -3 -7 -23 -7 -44 0 -38 16 -54 45 -43 21 8 20 80 -1
88 -20 8 -29 8 -37 -1z"/>
<path d="M2487 3363 c-14 -13 -7 -84 8 -89 24 -9 45 15 45 51 0 36 -32 59 -53
38z"/>
<path d="M2987 3363 c-24 -23 34 -100 66 -87 25 9 21 37 -11 67 -28 27 -43 33
-55 20z"/>
<path d="M2071 3306 c-26 -27 -25 -59 3 -64 24 -5 68 37 64 63 -4 29 -40 30
-67 1z"/>
<path d="M2687 3323 c-14 -13 -6 -40 17 -62 28 -26 59 -25 64 3 7 34 -58 82
-81 59z"/>
<path d="M1676 3147 c-29 -27 -34 -64 -10 -74 21 -8 76 46 72 72 -4 29 -32 30
-62 2z"/>
<path d="M1907 3142 c-33 -34 -34 -58 -5 -68 32 -10 83 48 68 76 -15 27 -31
25 -63 -8z"/>
<path d="M2177 3150 c-30 -24 -36 -67 -11 -77 10 -4 27 6 47 26 25 25 30 35
21 48 -16 25 -28 26 -57 3z"/>
<path d="M2393 3163 c-18 -7 -16 -68 2 -83 33 -27 64 47 33 78 -13 13 -16 13
-35 5z"/>
<path d="M2587 3163 c-23 -23 36 -102 67 -90 25 10 19 44 -11 72 -28 25 -44
31 -56 18z"/>
<path d="M2851 3156 c-21 -25 33 -94 64 -82 29 11 29 36 -1 67 -31 32 -46 36
-63 15z"/>
<path d="M3087 3163 c-15 -14 -6 -45 19 -68 30 -28 27 -27 48 -19 23 9 20 35
-9 67 -25 26 -45 34 -58 20z"/>
</g>
</svg>
